<svg width="385" height="422" viewBox="0 0 385 422" fill="none" xmlns="http://www.w3.org/2000/svg">
<path d="M90.9199 414.34C90.6399 414.34 90.4199 414.12 90.4199 413.84V410.84C90.4199 410.56 90.6399 410.34 90.9199 410.34C91.1999 410.34 91.4199 410.56 91.4199 410.84V413.84C91.4199 414.12 91.1999 414.34 90.9199 414.34ZM90.9199 408.34C90.6399 408.34 90.4199 408.12 90.4199 407.84V404.84C90.4199 404.56 90.6399 404.34 90.9199 404.34C91.1999 404.34 91.4199 404.56 91.4199 404.84V407.84C91.4199 408.12 91.1999 408.34 90.9199 408.34ZM90.9199 402.34C90.6399 402.34 90.4199 402.12 90.4199 401.84V398.84C90.4199 398.56 90.6399 398.34 90.9199 398.34C91.1999 398.34 91.4199 398.56 91.4199 398.84V401.84C91.4199 402.12 91.1999 402.34 90.9199 402.34ZM90.9199 396.34C90.6399 396.34 90.4199 396.12 90.4199 395.84V392.84C90.4199 392.56 90.6399 392.34 90.9199 392.34C91.1999 392.34 91.4199 392.56 91.4199 392.84V395.84C91.4199 396.12 91.1999 396.34 90.9199 396.34ZM90.9199 390.34C90.6399 390.34 90.4199 390.12 90.4199 389.84V386.84C90.4199 386.56 90.6399 386.34 90.9199 386.34C91.1999 386.34 91.4199 386.56 91.4199 386.84V389.84C91.4199 390.12 91.1999 390.34 90.9199 390.34ZM90.9199 384.34C90.6399 384.34 90.4199 384.12 90.4199 383.84V380.84C90.4199 380.56 90.6399 380.34 90.9199 380.34C91.1999 380.34 91.4199 380.56 91.4199 380.84V383.84C91.4199 384.12 91.1999 384.34 90.9199 384.34ZM90.9199 378.34C90.6399 378.34 90.4199 378.12 90.4199 377.84V374.84C90.4199 374.56 90.6399 374.34 90.9199 374.34C91.1999 374.34 91.4199 374.56 91.4199 374.84V377.84C91.4199 378.12 91.1999 378.34 90.9199 378.34ZM90.9199 372.34C90.6399 372.34 90.4199 372.12 90.4199 371.84V368.84C90.4199 368.56 90.6399 368.34 90.9199 368.34C91.1999 368.34 91.4199 368.56 91.4199 368.84V371.84C91.4199 372.12 91.1999 372.34 90.9199 372.34ZM90.9199 366.34C90.6399 366.34 90.4199 366.12 90.4199 365.84V362.84C90.4199 362.56 90.6399 362.34 90.9199 362.34C91.1999 362.34 91.4199 362.56 91.4199 362.84V365.84C91.4199 366.12 91.1999 366.34 90.9199 366.34ZM90.9199 360.34C90.6399 360.34 90.4199 360.12 90.4199 359.84V356.84C90.4199 356.56 90.6399 356.34 90.9199 356.34C91.1999 356.34 91.4199 356.56 91.4199 356.84V359.84C91.4199 360.12 91.1999 360.34 90.9199 360.34ZM90.9199 354.34C90.6399 354.34 90.4199 354.12 90.4199 353.84V350.84C90.4199 350.56 90.6399 350.34 90.9199 350.34C91.1999 350.34 91.4199 350.56 91.4199 350.84V353.84C91.4199 354.12 91.1999 354.34 90.9199 354.34ZM90.9199 348.34C90.6399 348.34 90.4199 348.12 90.4199 347.84V344.84C90.4199 344.56 90.6399 344.34 90.9199 344.34C91.1999 344.34 91.4199 344.56 91.4199 344.84V347.84C91.4199 348.12 91.1999 348.34 90.9199 348.34ZM90.9199 342.34C90.6399 342.34 90.4199 342.12 90.4199 341.84V338.84C90.4199 338.56 90.6399 338.34 90.9199 338.34C91.1999 338.34 91.4199 338.56 91.4199 338.84V341.84C91.4199 342.12 91.1999 342.34 90.9199 342.34ZM90.9199 336.34C90.6399 336.34 90.4199 336.12 90.4199 335.84V332.84C90.4199 332.56 90.6399 332.34 90.9199 332.34C91.1999 332.34 91.4199 332.56 91.4199 332.84V335.84C91.4199 336.12 91.1999 336.34 90.9199 336.34ZM90.9199 330.34C90.6399 330.34 90.4199 330.12 90.4199 329.84V326.84C90.4199 326.56 90.6399 326.34 90.9199 326.34C91.1999 326.34 91.4199 326.56 91.4199 326.84V329.84C91.4199 330.12 91.1999 330.34 90.9199 330.34ZM90.9199 324.34C90.6399 324.34 90.4199 324.12 90.4199 323.84V320.84C90.4199 320.56 90.6399 320.34 90.9199 320.34C91.1999 320.34 91.4199 320.56 91.4199 320.84V323.84C91.4199 324.12 91.1999 324.34 90.9199 324.34ZM90.9199 318.34C90.6399 318.34 90.4199 318.12 90.4199 317.84V314.84C90.4199 314.56 90.6399 314.34 90.9199 314.34C91.1999 314.34 91.4199 314.56 91.4199 314.84V317.84C91.4199 318.12 91.1999 318.34 90.9199 318.34ZM90.9199 312.34C90.6399 312.34 90.4199 312.12 90.4199 311.84V308.84C90.4199 308.56 90.6399 308.34 90.9199 308.34C91.1999 308.34 91.4199 308.56 91.4199 308.84V311.84C91.4199 312.12 91.1999 312.34 90.9199 312.34ZM90.9199 306.34C90.6399 306.34 90.4199 306.12 90.4199 305.84V302.84C90.4199 302.56 90.6399 302.34 90.9199 302.34C91.1999 302.34 91.4199 302.56 91.4199 302.84V305.84C91.4199 306.12 91.1999 306.34 90.9199 306.34ZM90.9199 300.34C90.6399 300.34 90.4199 300.12 90.4199 299.84V296.84C90.4199 296.56 90.6399 296.34 90.9199 296.34C91.1999 296.34 91.4199 296.56 91.4199 296.84V299.84C91.4199 300.12 91.1999 300.34 90.9199 300.34ZM90.9199 294.34C90.6399 294.34 90.4199 294.12 90.4199 293.84V290.84C90.4199 290.56 90.6399 290.34 90.9199 290.34C91.1999 290.34 91.4199 290.56 91.4199 290.84V293.84C91.4199 294.12 91.1999 294.34 90.9199 294.34ZM90.9199 288.34C90.6399 288.34 90.4199 288.12 90.4199 287.84V284.84C90.4199 284.56 90.6399 284.34 90.9199 284.34C91.1999 284.34 91.4199 284.56 91.4199 284.84V287.84C91.4199 288.12 91.1999 288.34 90.9199 288.34ZM90.9199 282.34C90.6399 282.34 90.4199 282.12 90.4199 281.84V278.84C90.4199 278.56 90.6399 278.34 90.9199 278.34C91.1999 278.34 91.4199 278.56 91.4199 278.84V281.84C91.4199 282.12 91.1999 282.34 90.9199 282.34ZM90.9199 276.34C90.6399 276.34 90.4199 276.12 90.4199 275.84V272.84C90.4199 272.56 90.6399 272.34 90.9199 272.34C91.1999 272.34 91.4199 272.56 91.4199 272.84V275.84C91.4199 276.12 91.1999 276.34 90.9199 276.34ZM90.9199 270.34C90.6399 270.34 90.4199 270.12 90.4199 269.84V266.84C90.4199 266.56 90.6399 266.34 90.9199 266.34C91.1999 266.34 91.4199 266.56 91.4199 266.84V269.84C91.4199 270.12 91.1999 270.34 90.9199 270.34ZM90.9199 264.34C90.6399 264.34 90.4199 264.12 90.4199 263.84V260.84C90.4199 260.56 90.6399 260.34 90.9199 260.34C91.1999 260.34 91.4199 260.56 91.4199 260.84V263.84C91.4199 264.12 91.1999 264.34 90.9199 264.34ZM90.9199 258.34C90.6399 258.34 90.4199 258.12 90.4199 257.84V254.84C90.4199 254.56 90.6399 254.34 90.9199 254.34C91.1999 254.34 91.4199 254.56 91.4199 254.84V257.84C91.4199 258.12 91.1999 258.34 90.9199 258.34ZM90.9199 252.34C90.6399 252.34 90.4199 252.12 90.4199 251.84V248.84C90.4199 248.56 90.6399 248.34 90.9199 248.34C91.1999 248.34 91.4199 248.56 91.4199 248.84V251.84C91.4199 252.12 91.1999 252.34 90.9199 252.34ZM90.9199 246.34C90.6399 246.34 90.4199 246.12 90.4199 245.84V242.84C90.4199 242.56 90.6399 242.34 90.9199 242.34C91.1999 242.34 91.4199 242.56 91.4199 242.84V245.84C91.4199 246.12 91.1999 246.34 90.9199 246.34ZM90.9199 240.34C90.6399 240.34 90.4199 240.12 90.4199 239.84V236.84C90.4199 236.56 90.6399 236.34 90.9199 236.34C91.1999 236.34 91.4199 236.56 91.4199 236.84V239.84C91.4199 240.12 91.1999 240.34 90.9199 240.34ZM90.9199 234.34C90.6399 234.34 90.4199 234.12 90.4199 233.84V230.84C90.4199 230.56 90.6399 230.34 90.9199 230.34C91.1999 230.34 91.4199 230.56 91.4199 230.84V233.84C91.4199 234.12 91.1999 234.34 90.9199 234.34ZM90.9199 228.34C90.6399 228.34 90.4199 228.12 90.4199 227.84V224.84C90.4199 224.56 90.6399 224.34 90.9199 224.34C91.1999 224.34 91.4199 224.56 91.4199 224.84V227.84C91.4199 228.12 91.1999 228.34 90.9199 228.34ZM90.9199 222.34C90.6399 222.34 90.4199 222.12 90.4199 221.84V218.84C90.4199 218.56 90.6399 218.34 90.9199 218.34C91.1999 218.34 91.4199 218.56 91.4199 218.84V221.84C91.4199 222.12 91.1999 222.34 90.9199 222.34ZM90.9199 216.34C90.6399 216.34 90.4199 216.12 90.4199 215.84V212.84C90.4199 212.56 90.6399 212.34 90.9199 212.34C91.1999 212.34 91.4199 212.56 91.4199 212.84V215.84C91.4199 216.12 91.1999 216.34 90.9199 216.34ZM90.9199 210.34C90.6399 210.34 90.4199 210.12 90.4199 209.84V206.84C90.4199 206.56 90.6399 206.34 90.9199 206.34C91.1999 206.34 91.4199 206.56 91.4199 206.84V209.84C91.4199 210.12 91.1999 210.34 90.9199 210.34ZM90.9199 204.34C90.6399 204.34 90.4199 204.12 90.4199 203.84V200.84C90.4199 200.56 90.6399 200.34 90.9199 200.34C91.1999 200.34 91.4199 200.56 91.4199 200.84V203.84C91.4199 204.12 91.1999 204.34 90.9199 204.34ZM90.9199 198.34C90.6399 198.34 90.4199 198.12 90.4199 197.84V194.84C90.4199 194.56 90.6399 194.34 90.9199 194.34C91.1999 194.34 91.4199 194.56 91.4199 194.84V197.84C91.4199 198.12 91.1999 198.34 90.9199 198.34ZM90.9199 192.34C90.6399 192.34 90.4199 192.12 90.4199 191.84V188.84C90.4199 188.56 90.6399 188.34 90.9199 188.34C91.1999 188.34 91.4199 188.56 91.4199 188.84V191.84C91.4199 192.12 91.1999 192.34 90.9199 192.34ZM90.9199 186.34C90.6399 186.34 90.4199 186.12 90.4199 185.84V182.84C90.4199 182.56 90.6399 182.34 90.9199 182.34C91.1999 182.34 91.4199 182.56 91.4199 182.84V185.84C91.4199 186.12 91.1999 186.34 90.9199 186.34ZM90.9199 180.34C90.6399 180.34 90.4199 180.12 90.4199 179.84V176.84C90.4199 176.56 90.6399 176.34 90.9199 176.34C91.1999 176.34 91.4199 176.56 91.4199 176.84V179.84C91.4199 180.12 91.1999 180.34 90.9199 180.34ZM90.9199 174.34C90.6399 174.34 90.4199 174.12 90.4199 173.84V170.84C90.4199 170.56 90.6399 170.34 90.9199 170.34C91.1999 170.34 91.4199 170.56 91.4199 170.84V173.84C91.4199 174.12 91.1999 174.34 90.9199 174.34ZM90.9199 168.34C90.6399 168.34 90.4199 168.12 90.4199 167.84V164.84C90.4199 164.56 90.6399 164.34 90.9199 164.34C91.1999 164.34 91.4199 164.56 91.4199 164.84V167.84C91.4199 168.12 91.1999 168.34 90.9199 168.34ZM90.9199 162.34C90.6399 162.34 90.4199 162.12 90.4199 161.84V158.84C90.4199 158.56 90.6399 158.34 90.9199 158.34C91.1999 158.34 91.4199 158.56 91.4199 158.84V161.84C91.4199 162.12 91.1999 162.34 90.9199 162.34ZM90.9199 156.34C90.6399 156.34 90.4199 156.12 90.4199 155.84V152.84C90.4199 152.56 90.6399 152.34 90.9199 152.34C91.1999 152.34 91.4199 152.56 91.4199 152.84V155.84C91.4199 156.12 91.1999 156.34 90.9199 156.34ZM90.9199 150.34C90.6399 150.34 90.4199 150.12 90.4199 149.84V146.84C90.4199 146.56 90.6399 146.34 90.9199 146.34C91.1999 146.34 91.4199 146.56 91.4199 146.84V149.84C91.4199 150.12 91.1999 150.34 90.9199 150.34ZM90.9199 144.34C90.6399 144.34 90.4199 144.12 90.4199 143.84V140.84C90.4199 140.56 90.6399 140.34 90.9199 140.34C91.1999 140.34 91.4199 140.56 91.4199 140.84V143.84C91.4199 144.12 91.1999 144.34 90.9199 144.34ZM90.9199 138.34C90.6399 138.34 90.4199 138.12 90.4199 137.84V134.84C90.4199 134.56 90.6399 134.34 90.9199 134.34C91.1999 134.34 91.4199 134.56 91.4199 134.84V137.84C91.4199 138.12 91.1999 138.34 90.9199 138.34ZM90.9199 132.34C90.6399 132.34 90.4199 132.12 90.4199 131.84V128.84C90.4199 128.56 90.6399 128.34 90.9199 128.34C91.1999 128.34 91.4199 128.56 91.4199 128.84V131.84C91.4199 132.12 91.1999 132.34 90.9199 132.34ZM90.9199 126.34C90.6399 126.34 90.4199 126.12 90.4199 125.84V122.84C90.4199 122.56 90.6399 122.34 90.9199 122.34C91.1999 122.34 91.4199 122.56 91.4199 122.84V125.84C91.4199 126.12 91.1999 126.34 90.9199 126.34ZM90.9199 120.34C90.6399 120.34 90.4199 120.12 90.4199 119.84V116.84C90.4199 116.56 90.6399 116.34 90.9199 116.34C91.1999 116.34 91.4199 116.56 91.4199 116.84V119.84C91.4199 120.12 91.1999 120.34 90.9199 120.34ZM90.9199 114.34C90.6399 114.34 90.4199 114.12 90.4199 113.84V111.58C90.4199 111.3 90.6399 111.08 90.9199 111.08C91.1999 111.08 91.4199 111.3 91.4199 111.58V113.84C91.4199 114.12 91.1999 114.34 90.9199 114.34Z" fill="#64D1DB"/>
<path opacity="0.29" d="M173.881 64.6001H7.9707V365.58H173.881V64.6001Z" fill="url(#paint0_linear_2681_5731)"/>
<path d="M173.869 366.45C173.589 366.45 173.369 366.23 173.369 365.95V364.6C173.369 364.32 173.589 364.1 173.869 364.1C174.149 364.1 174.369 364.32 174.369 364.6V365.95C174.369 366.23 174.149 366.45 173.869 366.45ZM173.869 362.1C173.589 362.1 173.369 361.88 173.369 361.6V358.6C173.369 358.32 173.589 358.1 173.869 358.1C174.149 358.1 174.369 358.32 174.369 358.6V361.6C174.369 361.88 174.149 362.1 173.869 362.1ZM173.869 356.1C173.589 356.1 173.369 355.88 173.369 355.6V352.6C173.369 352.32 173.589 352.1 173.869 352.1C174.149 352.1 174.369 352.32 174.369 352.6V355.6C174.369 355.88 174.149 356.1 173.869 356.1ZM173.869 350.1C173.589 350.1 173.369 349.88 173.369 349.6V346.6C173.369 346.32 173.589 346.1 173.869 346.1C174.149 346.1 174.369 346.32 174.369 346.6V349.6C174.369 349.88 174.149 350.1 173.869 350.1ZM173.869 344.1C173.589 344.1 173.369 343.88 173.369 343.6V340.6C173.369 340.32 173.589 340.1 173.869 340.1C174.149 340.1 174.369 340.32 174.369 340.6V343.6C174.369 343.88 174.149 344.1 173.869 344.1ZM173.869 338.1C173.589 338.1 173.369 337.88 173.369 337.6V334.6C173.369 334.32 173.589 334.1 173.869 334.1C174.149 334.1 174.369 334.32 174.369 334.6V337.6C174.369 337.88 174.149 338.1 173.869 338.1ZM173.869 332.1C173.589 332.1 173.369 331.88 173.369 331.6V328.6C173.369 328.32 173.589 328.1 173.869 328.1C174.149 328.1 174.369 328.32 174.369 328.6V331.6C174.369 331.88 174.149 332.1 173.869 332.1ZM173.869 326.1C173.589 326.1 173.369 325.88 173.369 325.6V322.6C173.369 322.32 173.589 322.1 173.869 322.1C174.149 322.1 174.369 322.32 174.369 322.6V325.6C174.369 325.88 174.149 326.1 173.869 326.1ZM173.869 320.1C173.589 320.1 173.369 319.88 173.369 319.6V316.6C173.369 316.32 173.589 316.1 173.869 316.1C174.149 316.1 174.369 316.32 174.369 316.6V319.6C174.369 319.88 174.149 320.1 173.869 320.1ZM173.869 314.1C173.589 314.1 173.369 313.88 173.369 313.6V310.6C173.369 310.32 173.589 310.1 173.869 310.1C174.149 310.1 174.369 310.32 174.369 310.6V313.6C174.369 313.88 174.149 314.1 173.869 314.1ZM173.869 308.1C173.589 308.1 173.369 307.88 173.369 307.6V304.6C173.369 304.32 173.589 304.1 173.869 304.1C174.149 304.1 174.369 304.32 174.369 304.6V307.6C174.369 307.88 174.149 308.1 173.869 308.1ZM173.869 302.1C173.589 302.1 173.369 301.88 173.369 301.6V298.6C173.369 298.32 173.589 298.1 173.869 298.1C174.149 298.1 174.369 298.32 174.369 298.6V301.6C174.369 301.88 174.149 302.1 173.869 302.1ZM173.869 296.1C173.589 296.1 173.369 295.88 173.369 295.6V292.6C173.369 292.32 173.589 292.1 173.869 292.1C174.149 292.1 174.369 292.32 174.369 292.6V295.6C174.369 295.88 174.149 296.1 173.869 296.1ZM173.869 290.1C173.589 290.1 173.369 289.88 173.369 289.6V286.6C173.369 286.32 173.589 286.1 173.869 286.1C174.149 286.1 174.369 286.32 174.369 286.6V289.6C174.369 289.88 174.149 290.1 173.869 290.1ZM173.869 284.1C173.589 284.1 173.369 283.88 173.369 283.6V280.6C173.369 280.32 173.589 280.1 173.869 280.1C174.149 280.1 174.369 280.32 174.369 280.6V283.6C174.369 283.88 174.149 284.1 173.869 284.1ZM173.869 278.1C173.589 278.1 173.369 277.88 173.369 277.6V274.6C173.369 274.32 173.589 274.1 173.869 274.1C174.149 274.1 174.369 274.32 174.369 274.6V277.6C174.369 277.88 174.149 278.1 173.869 278.1ZM173.869 272.1C173.589 272.1 173.369 271.88 173.369 271.6V268.6C173.369 268.32 173.589 268.1 173.869 268.1C174.149 268.1 174.369 268.32 174.369 268.6V271.6C174.369 271.88 174.149 272.1 173.869 272.1ZM173.869 266.1C173.589 266.1 173.369 265.88 173.369 265.6V262.6C173.369 262.32 173.589 262.1 173.869 262.1C174.149 262.1 174.369 262.32 174.369 262.6V265.6C174.369 265.88 174.149 266.1 173.869 266.1ZM173.869 260.1C173.589 260.1 173.369 259.88 173.369 259.6V256.6C173.369 256.32 173.589 256.1 173.869 256.1C174.149 256.1 174.369 256.32 174.369 256.6V259.6C174.369 259.88 174.149 260.1 173.869 260.1ZM173.869 254.1C173.589 254.1 173.369 253.88 173.369 253.6V250.6C173.369 250.32 173.589 250.1 173.869 250.1C174.149 250.1 174.369 250.32 174.369 250.6V253.6C174.369 253.88 174.149 254.1 173.869 254.1ZM173.869 248.1C173.589 248.1 173.369 247.88 173.369 247.6V244.6C173.369 244.32 173.589 244.1 173.869 244.1C174.149 244.1 174.369 244.32 174.369 244.6V247.6C174.369 247.88 174.149 248.1 173.869 248.1ZM173.869 242.1C173.589 242.1 173.369 241.88 173.369 241.6V238.6C173.369 238.32 173.589 238.1 173.869 238.1C174.149 238.1 174.369 238.32 174.369 238.6V241.6C174.369 241.88 174.149 242.1 173.869 242.1ZM173.869 236.1C173.589 236.1 173.369 235.88 173.369 235.6V232.6C173.369 232.32 173.589 232.1 173.869 232.1C174.149 232.1 174.369 232.32 174.369 232.6V235.6C174.369 235.88 174.149 236.1 173.869 236.1ZM173.869 230.1C173.589 230.1 173.369 229.88 173.369 229.6V226.6C173.369 226.32 173.589 226.1 173.869 226.1C174.149 226.1 174.369 226.32 174.369 226.6V229.6C174.369 229.88 174.149 230.1 173.869 230.1ZM173.869 224.1C173.589 224.1 173.369 223.88 173.369 223.6V220.6C173.369 220.32 173.589 220.1 173.869 220.1C174.149 220.1 174.369 220.32 174.369 220.6V223.6C174.369 223.88 174.149 224.1 173.869 224.1ZM173.869 218.1C173.589 218.1 173.369 217.88 173.369 217.6V214.6C173.369 214.32 173.589 214.1 173.869 214.1C174.149 214.1 174.369 214.32 174.369 214.6V217.6C174.369 217.88 174.149 218.1 173.869 218.1ZM173.869 212.1C173.589 212.1 173.369 211.88 173.369 211.6V208.6C173.369 208.32 173.589 208.1 173.869 208.1C174.149 208.1 174.369 208.32 174.369 208.6V211.6C174.369 211.88 174.149 212.1 173.869 212.1ZM173.869 206.1C173.589 206.1 173.369 205.88 173.369 205.6V202.6C173.369 202.32 173.589 202.1 173.869 202.1C174.149 202.1 174.369 202.32 174.369 202.6V205.6C174.369 205.88 174.149 206.1 173.869 206.1ZM173.869 200.1C173.589 200.1 173.369 199.88 173.369 199.6V196.6C173.369 196.32 173.589 196.1 173.869 196.1C174.149 196.1 174.369 196.32 174.369 196.6V199.6C174.369 199.88 174.149 200.1 173.869 200.1ZM173.869 194.1C173.589 194.1 173.369 193.88 173.369 193.6V190.6C173.369 190.32 173.589 190.1 173.869 190.1C174.149 190.1 174.369 190.32 174.369 190.6V193.6C174.369 193.88 174.149 194.1 173.869 194.1ZM173.869 188.1C173.589 188.1 173.369 187.88 173.369 187.6V184.6C173.369 184.32 173.589 184.1 173.869 184.1C174.149 184.1 174.369 184.32 174.369 184.6V187.6C174.369 187.88 174.149 188.1 173.869 188.1ZM173.869 182.1C173.589 182.1 173.369 181.88 173.369 181.6V178.6C173.369 178.32 173.589 178.1 173.869 178.1C174.149 178.1 174.369 178.32 174.369 178.6V181.6C174.369 181.88 174.149 182.1 173.869 182.1ZM173.869 176.1C173.589 176.1 173.369 175.88 173.369 175.6V172.6C173.369 172.32 173.589 172.1 173.869 172.1C174.149 172.1 174.369 172.32 174.369 172.6V175.6C174.369 175.88 174.149 176.1 173.869 176.1ZM173.869 170.1C173.589 170.1 173.369 169.88 173.369 169.6V166.6C173.369 166.32 173.589 166.1 173.869 166.1C174.149 166.1 174.369 166.32 174.369 166.6V169.6C174.369 169.88 174.149 170.1 173.869 170.1ZM173.869 164.1C173.589 164.1 173.369 163.88 173.369 163.6V160.6C173.369 160.32 173.589 160.1 173.869 160.1C174.149 160.1 174.369 160.32 174.369 160.6V163.6C174.369 163.88 174.149 164.1 173.869 164.1ZM173.869 158.1C173.589 158.1 173.369 157.88 173.369 157.6V154.6C173.369 154.32 173.589 154.1 173.869 154.1C174.149 154.1 174.369 154.32 174.369 154.6V157.6C174.369 157.88 174.149 158.1 173.869 158.1ZM173.869 152.1C173.589 152.1 173.369 151.88 173.369 151.6V148.6C173.369 148.32 173.589 148.1 173.869 148.1C174.149 148.1 174.369 148.32 174.369 148.6V151.6C174.369 151.88 174.149 152.1 173.869 152.1ZM173.869 146.1C173.589 146.1 173.369 145.88 173.369 145.6V142.6C173.369 142.32 173.589 142.1 173.869 142.1C174.149 142.1 174.369 142.32 174.369 142.6V145.6C174.369 145.88 174.149 146.1 173.869 146.1ZM173.869 140.1C173.589 140.1 173.369 139.88 173.369 139.6V136.6C173.369 136.32 173.589 136.1 173.869 136.1C174.149 136.1 174.369 136.32 174.369 136.6V139.6C174.369 139.88 174.149 140.1 173.869 140.1ZM173.869 134.1C173.589 134.1 173.369 133.88 173.369 133.6V130.6C173.369 130.32 173.589 130.1 173.869 130.1C174.149 130.1 174.369 130.32 174.369 130.6V133.6C174.369 133.88 174.149 134.1 173.869 134.1ZM173.869 128.1C173.589 128.1 173.369 127.88 173.369 127.6V124.6C173.369 124.32 173.589 124.1 173.869 124.1C174.149 124.1 174.369 124.32 174.369 124.6V127.6C174.369 127.88 174.149 128.1 173.869 128.1ZM173.869 122.1C173.589 122.1 173.369 121.88 173.369 121.6V118.6C173.369 118.32 173.589 118.1 173.869 118.1C174.149 118.1 174.369 118.32 174.369 118.6V121.6C174.369 121.88 174.149 122.1 173.869 122.1ZM173.869 116.1C173.589 116.1 173.369 115.88 173.369 115.6V112.6C173.369 112.32 173.589 112.1 173.869 112.1C174.149 112.1 174.369 112.32 174.369 112.6V115.6C174.369 115.88 174.149 116.1 173.869 116.1ZM173.869 110.1C173.589 110.1 173.369 109.88 173.369 109.6V106.6C173.369 106.32 173.589 106.1 173.869 106.1C174.149 106.1 174.369 106.32 174.369 106.6V109.6C174.369 109.88 174.149 110.1 173.869 110.1ZM173.869 104.1C173.589 104.1 173.369 103.88 173.369 103.6V100.6C173.369 100.32 173.589 100.1 173.869 100.1C174.149 100.1 174.369 100.32 174.369 100.6V103.6C174.369 103.88 174.149 104.1 173.869 104.1ZM173.869 98.1001C173.589 98.1001 173.369 97.8801 173.369 97.6001V94.6001C173.369 94.3201 173.589 94.1001 173.869 94.1001C174.149 94.1001 174.369 94.3201 174.369 94.6001V97.6001C174.369 97.8801 174.149 98.1001 173.869 98.1001ZM173.869 92.1001C173.589 92.1001 173.369 91.8801 173.369 91.6001V88.6001C173.369 88.3201 173.589 88.1001 173.869 88.1001C174.149 88.1001 174.369 88.3201 174.369 88.6001V91.6001C174.369 91.8801 174.149 92.1001 173.869 92.1001ZM173.869 86.1001C173.589 86.1001 173.369 85.8801 173.369 85.6001V82.6001C173.369 82.3201 173.589 82.1001 173.869 82.1001C174.149 82.1001 174.369 82.3201 174.369 82.6001V85.6001C174.369 85.8801 174.149 86.1001 173.869 86.1001ZM173.869 80.1001C173.589 80.1001 173.369 79.8801 173.369 79.6001V76.6001C173.369 76.3201 173.589 76.1001 173.869 76.1001C174.149 76.1001 174.369 76.3201 174.369 76.6001V79.6001C174.369 79.8801 174.149 80.1001 173.869 80.1001ZM173.869 74.1001C173.589 74.1001 173.369 73.8801 173.369 73.6001V70.6001C173.369 70.3201 173.589 70.1001 173.869 70.1001C174.149 70.1001 174.369 70.3201 174.369 70.6001V73.6001C174.369 73.8801 174.149 74.1001 173.869 74.1001ZM173.869 68.1001C173.589 68.1001 173.369 67.8801 173.369 67.6001V64.6001C173.369 64.3201 173.589 64.1001 173.869 64.1001C174.149 64.1001 174.369 64.3201 174.369 64.6001V67.6001C174.369 67.8801 174.149 68.1001 173.869 68.1001Z" fill="#64D1DB"/>
<path d="M7.9707 366.03C7.6907 366.03 7.4707 365.81 7.4707 365.53V364.18C7.4707 363.9 7.6907 363.68 7.9707 363.68C8.2507 363.68 8.4707 363.9 8.4707 364.18V365.53C8.4707 365.81 8.2507 366.03 7.9707 366.03ZM7.9707 361.68C7.6907 361.68 7.4707 361.46 7.4707 361.18V358.18C7.4707 357.9 7.6907 357.68 7.9707 357.68C8.2507 357.68 8.4707 357.9 8.4707 358.18V361.18C8.4707 361.46 8.2507 361.68 7.9707 361.68ZM7.9707 355.68C7.6907 355.68 7.4707 355.46 7.4707 355.18V352.18C7.4707 351.9 7.6907 351.68 7.9707 351.68C8.2507 351.68 8.4707 351.9 8.4707 352.18V355.18C8.4707 355.46 8.2507 355.68 7.9707 355.68ZM7.9707 349.68C7.6907 349.68 7.4707 349.46 7.4707 349.18V346.18C7.4707 345.9 7.6907 345.68 7.9707 345.68C8.2507 345.68 8.4707 345.9 8.4707 346.18V349.18C8.4707 349.46 8.2507 349.68 7.9707 349.68ZM7.9707 343.68C7.6907 343.68 7.4707 343.46 7.4707 343.18V340.18C7.4707 339.9 7.6907 339.68 7.9707 339.68C8.2507 339.68 8.4707 339.9 8.4707 340.18V343.18C8.4707 343.46 8.2507 343.68 7.9707 343.68ZM7.9707 337.68C7.6907 337.68 7.4707 337.46 7.4707 337.18V334.18C7.4707 333.9 7.6907 333.68 7.9707 333.68C8.2507 333.68 8.4707 333.9 8.4707 334.18V337.18C8.4707 337.46 8.2507 337.68 7.9707 337.68ZM7.9707 331.68C7.6907 331.68 7.4707 331.46 7.4707 331.18V328.18C7.4707 327.9 7.6907 327.68 7.9707 327.68C8.2507 327.68 8.4707 327.9 8.4707 328.18V331.18C8.4707 331.46 8.2507 331.68 7.9707 331.68ZM7.9707 325.68C7.6907 325.68 7.4707 325.46 7.4707 325.18V322.18C7.4707 321.9 7.6907 321.68 7.9707 321.68C8.2507 321.68 8.4707 321.9 8.4707 322.18V325.18C8.4707 325.46 8.2507 325.68 7.9707 325.68ZM7.9707 319.68C7.6907 319.68 7.4707 319.46 7.4707 319.18V316.18C7.4707 315.9 7.6907 315.68 7.9707 315.68C8.2507 315.68 8.4707 315.9 8.4707 316.18V319.18C8.4707 319.46 8.2507 319.68 7.9707 319.68ZM7.9707 313.68C7.6907 313.68 7.4707 313.46 7.4707 313.18V310.18C7.4707 309.9 7.6907 309.68 7.9707 309.68C8.2507 309.68 8.4707 309.9 8.4707 310.18V313.18C8.4707 313.46 8.2507 313.68 7.9707 313.68ZM7.9707 307.68C7.6907 307.68 7.4707 307.46 7.4707 307.18V304.18C7.4707 303.9 7.6907 303.68 7.9707 303.68C8.2507 303.68 8.4707 303.9 8.4707 304.18V307.18C8.4707 307.46 8.2507 307.68 7.9707 307.68ZM7.9707 301.68C7.6907 301.68 7.4707 301.46 7.4707 301.18V298.18C7.4707 297.9 7.6907 297.68 7.9707 297.68C8.2507 297.68 8.4707 297.9 8.4707 298.18V301.18C8.4707 301.46 8.2507 301.68 7.9707 301.68ZM7.9707 295.68C7.6907 295.68 7.4707 295.46 7.4707 295.18V292.18C7.4707 291.9 7.6907 291.68 7.9707 291.68C8.2507 291.68 8.4707 291.9 8.4707 292.18V295.18C8.4707 295.46 8.2507 295.68 7.9707 295.68ZM7.9707 289.68C7.6907 289.68 7.4707 289.46 7.4707 289.18V286.18C7.4707 285.9 7.6907 285.68 7.9707 285.68C8.2507 285.68 8.4707 285.9 8.4707 286.18V289.18C8.4707 289.46 8.2507 289.68 7.9707 289.68ZM7.9707 283.68C7.6907 283.68 7.4707 283.46 7.4707 283.18V280.18C7.4707 279.9 7.6907 279.68 7.9707 279.68C8.2507 279.68 8.4707 279.9 8.4707 280.18V283.18C8.4707 283.46 8.2507 283.68 7.9707 283.68ZM7.9707 277.68C7.6907 277.68 7.4707 277.46 7.4707 277.18V274.18C7.4707 273.9 7.6907 273.68 7.9707 273.68C8.2507 273.68 8.4707 273.9 8.4707 274.18V277.18C8.4707 277.46 8.2507 277.68 7.9707 277.68ZM7.9707 271.68C7.6907 271.68 7.4707 271.46 7.4707 271.18V268.18C7.4707 267.9 7.6907 267.68 7.9707 267.68C8.2507 267.68 8.4707 267.9 8.4707 268.18V271.18C8.4707 271.46 8.2507 271.68 7.9707 271.68ZM7.9707 265.68C7.6907 265.68 7.4707 265.46 7.4707 265.18V262.18C7.4707 261.9 7.6907 261.68 7.9707 261.68C8.2507 261.68 8.4707 261.9 8.4707 262.18V265.18C8.4707 265.46 8.2507 265.68 7.9707 265.68ZM7.9707 259.68C7.6907 259.68 7.4707 259.46 7.4707 259.18V256.18C7.4707 255.9 7.6907 255.68 7.9707 255.68C8.2507 255.68 8.4707 255.9 8.4707 256.18V259.18C8.4707 259.46 8.2507 259.68 7.9707 259.68ZM7.9707 253.68C7.6907 253.68 7.4707 253.46 7.4707 253.18V250.18C7.4707 249.9 7.6907 249.68 7.9707 249.68C8.2507 249.68 8.4707 249.9 8.4707 250.18V253.18C8.4707 253.46 8.2507 253.68 7.9707 253.68ZM7.9707 247.68C7.6907 247.68 7.4707 247.46 7.4707 247.18V244.18C7.4707 243.9 7.6907 243.68 7.9707 243.68C8.2507 243.68 8.4707 243.9 8.4707 244.18V247.18C8.4707 247.46 8.2507 247.68 7.9707 247.68ZM7.9707 241.68C7.6907 241.68 7.4707 241.46 7.4707 241.18V238.18C7.4707 237.9 7.6907 237.68 7.9707 237.68C8.2507 237.68 8.4707 237.9 8.4707 238.18V241.18C8.4707 241.46 8.2507 241.68 7.9707 241.68ZM7.9707 235.68C7.6907 235.68 7.4707 235.46 7.4707 235.18V232.18C7.4707 231.9 7.6907 231.68 7.9707 231.68C8.2507 231.68 8.4707 231.9 8.4707 232.18V235.18C8.4707 235.46 8.2507 235.68 7.9707 235.68ZM7.9707 229.68C7.6907 229.68 7.4707 229.46 7.4707 229.18V226.18C7.4707 225.9 7.6907 225.68 7.9707 225.68C8.2507 225.68 8.4707 225.9 8.4707 226.18V229.18C8.4707 229.46 8.2507 229.68 7.9707 229.68ZM7.9707 223.68C7.6907 223.68 7.4707 223.46 7.4707 223.18V220.18C7.4707 219.9 7.6907 219.68 7.9707 219.68C8.2507 219.68 8.4707 219.9 8.4707 220.18V223.18C8.4707 223.46 8.2507 223.68 7.9707 223.68ZM7.9707 217.68C7.6907 217.68 7.4707 217.46 7.4707 217.18V214.18C7.4707 213.9 7.6907 213.68 7.9707 213.68C8.2507 213.68 8.4707 213.9 8.4707 214.18V217.18C8.4707 217.46 8.2507 217.68 7.9707 217.68ZM7.9707 211.68C7.6907 211.68 7.4707 211.46 7.4707 211.18V208.18C7.4707 207.9 7.6907 207.68 7.9707 207.68C8.2507 207.68 8.4707 207.9 8.4707 208.18V211.18C8.4707 211.46 8.2507 211.68 7.9707 211.68ZM7.9707 205.68C7.6907 205.68 7.4707 205.46 7.4707 205.18V202.18C7.4707 201.9 7.6907 201.68 7.9707 201.68C8.2507 201.68 8.4707 201.9 8.4707 202.18V205.18C8.4707 205.46 8.2507 205.68 7.9707 205.68ZM7.9707 199.68C7.6907 199.68 7.4707 199.46 7.4707 199.18V196.18C7.4707 195.9 7.6907 195.68 7.9707 195.68C8.2507 195.68 8.4707 195.9 8.4707 196.18V199.18C8.4707 199.46 8.2507 199.68 7.9707 199.68ZM7.9707 193.68C7.6907 193.68 7.4707 193.46 7.4707 193.18V190.18C7.4707 189.9 7.6907 189.68 7.9707 189.68C8.2507 189.68 8.4707 189.9 8.4707 190.18V193.18C8.4707 193.46 8.2507 193.68 7.9707 193.68ZM7.9707 187.68C7.6907 187.68 7.4707 187.46 7.4707 187.18V184.18C7.4707 183.9 7.6907 183.68 7.9707 183.68C8.2507 183.68 8.4707 183.9 8.4707 184.18V187.18C8.4707 187.46 8.2507 187.68 7.9707 187.68ZM7.9707 181.68C7.6907 181.68 7.4707 181.46 7.4707 181.18V178.18C7.4707 177.9 7.6907 177.68 7.9707 177.68C8.2507 177.68 8.4707 177.9 8.4707 178.18V181.18C8.4707 181.46 8.2507 181.68 7.9707 181.68ZM7.9707 175.68C7.6907 175.68 7.4707 175.46 7.4707 175.18V172.18C7.4707 171.9 7.6907 171.68 7.9707 171.68C8.2507 171.68 8.4707 171.9 8.4707 172.18V175.18C8.4707 175.46 8.2507 175.68 7.9707 175.68ZM7.9707 169.68C7.6907 169.68 7.4707 169.46 7.4707 169.18V166.18C7.4707 165.9 7.6907 165.68 7.9707 165.68C8.2507 165.68 8.4707 165.9 8.4707 166.18V169.18C8.4707 169.46 8.2507 169.68 7.9707 169.68ZM7.9707 163.68C7.6907 163.68 7.4707 163.46 7.4707 163.18V160.18C7.4707 159.9 7.6907 159.68 7.9707 159.68C8.2507 159.68 8.4707 159.9 8.4707 160.18V163.18C8.4707 163.46 8.2507 163.68 7.9707 163.68ZM7.9707 157.68C7.6907 157.68 7.4707 157.46 7.4707 157.18V154.18C7.4707 153.9 7.6907 153.68 7.9707 153.68C8.2507 153.68 8.4707 153.9 8.4707 154.18V157.18C8.4707 157.46 8.2507 157.68 7.9707 157.68ZM7.9707 151.68C7.6907 151.68 7.4707 151.46 7.4707 151.18V148.18C7.4707 147.9 7.6907 147.68 7.9707 147.68C8.2507 147.68 8.4707 147.9 8.4707 148.18V151.18C8.4707 151.46 8.2507 151.68 7.9707 151.68ZM7.9707 145.68C7.6907 145.68 7.4707 145.46 7.4707 145.18V142.18C7.4707 141.9 7.6907 141.68 7.9707 141.68C8.2507 141.68 8.4707 141.9 8.4707 142.18V145.18C8.4707 145.46 8.2507 145.68 7.9707 145.68ZM7.9707 139.68C7.6907 139.68 7.4707 139.46 7.4707 139.18V136.18C7.4707 135.9 7.6907 135.68 7.9707 135.68C8.2507 135.68 8.4707 135.9 8.4707 136.18V139.18C8.4707 139.46 8.2507 139.68 7.9707 139.68ZM7.9707 133.68C7.6907 133.68 7.4707 133.46 7.4707 133.18V130.18C7.4707 129.9 7.6907 129.68 7.9707 129.68C8.2507 129.68 8.4707 129.9 8.4707 130.18V133.18C8.4707 133.46 8.2507 133.68 7.9707 133.68ZM7.9707 127.68C7.6907 127.68 7.4707 127.46 7.4707 127.18V124.18C7.4707 123.9 7.6907 123.68 7.9707 123.68C8.2507 123.68 8.4707 123.9 8.4707 124.18V127.18C8.4707 127.46 8.2507 127.68 7.9707 127.68ZM7.9707 121.68C7.6907 121.68 7.4707 121.46 7.4707 121.18V118.18C7.4707 117.9 7.6907 117.68 7.9707 117.68C8.2507 117.68 8.4707 117.9 8.4707 118.18V121.18C8.4707 121.46 8.2507 121.68 7.9707 121.68ZM7.9707 115.68C7.6907 115.68 7.4707 115.46 7.4707 115.18V112.18C7.4707 111.9 7.6907 111.68 7.9707 111.68C8.2507 111.68 8.4707 111.9 8.4707 112.18V115.18C8.4707 115.46 8.2507 115.68 7.9707 115.68ZM7.9707 109.68C7.6907 109.68 7.4707 109.46 7.4707 109.18V106.18C7.4707 105.9 7.6907 105.68 7.9707 105.68C8.2507 105.68 8.4707 105.9 8.4707 106.18V109.18C8.4707 109.46 8.2507 109.68 7.9707 109.68ZM7.9707 103.68C7.6907 103.68 7.4707 103.46 7.4707 103.18V100.18C7.4707 99.9002 7.6907 99.6802 7.9707 99.6802C8.2507 99.6802 8.4707 99.9002 8.4707 100.18V103.18C8.4707 103.46 8.2507 103.68 7.9707 103.68ZM7.9707 97.6802C7.6907 97.6802 7.4707 97.4602 7.4707 97.1802V94.1802C7.4707 93.9002 7.6907 93.6802 7.9707 93.6802C8.2507 93.6802 8.4707 93.9002 8.4707 94.1802V97.1802C8.4707 97.4602 8.2507 97.6802 7.9707 97.6802ZM7.9707 91.6802C7.6907 91.6802 7.4707 91.4602 7.4707 91.1802V88.1802C7.4707 87.9002 7.6907 87.6802 7.9707 87.6802C8.2507 87.6802 8.4707 87.9002 8.4707 88.1802V91.1802C8.4707 91.4602 8.2507 91.6802 7.9707 91.6802ZM7.9707 85.6802C7.6907 85.6802 7.4707 85.4602 7.4707 85.1802V82.1802C7.4707 81.9002 7.6907 81.6802 7.9707 81.6802C8.2507 81.6802 8.4707 81.9002 8.4707 82.1802V85.1802C8.4707 85.4602 8.2507 85.6802 7.9707 85.6802ZM7.9707 79.6802C7.6907 79.6802 7.4707 79.4602 7.4707 79.1802V76.1802C7.4707 75.9002 7.6907 75.6802 7.9707 75.6802C8.2507 75.6802 8.4707 75.9002 8.4707 76.1802V79.1802C8.4707 79.4602 8.2507 79.6802 7.9707 79.6802ZM7.9707 73.6802C7.6907 73.6802 7.4707 73.4602 7.4707 73.1802V70.1802C7.4707 69.9002 7.6907 69.6802 7.9707 69.6802C8.2507 69.6802 8.4707 69.9002 8.4707 70.1802V73.1802C8.4707 73.4602 8.2507 73.6802 7.9707 73.6802ZM7.9707 67.6802C7.6907 67.6802 7.4707 67.4602 7.4707 67.1802V64.1802C7.4707 63.9002 7.6907 63.6802 7.9707 63.6802C8.2507 63.6802 8.4707 63.9002 8.4707 64.1802V67.1802C8.4707 67.4602 8.2507 67.6802 7.9707 67.6802Z" fill="#64D1DB"/>
<path d="M80.3991 411.33L11.9891 371.83C6.01912 368.39 6.76912 362.37 13.6591 358.39L78.1591 321.15C85.0491 317.17 95.4691 316.74 101.429 320.19L169.839 359.69C175.809 363.13 175.059 369.15 168.169 373.13L103.669 410.37C96.7791 414.35 86.3591 414.78 80.3991 411.33Z" fill="#140648" stroke="url(#paint1_linear_2681_5731)" stroke-width="1.5" stroke-miterlimit="10"/>
<path d="M80.3991 322.94L11.9891 283.44C6.01912 280 6.76912 273.98 13.6591 270L78.1591 232.76C85.0491 228.78 95.4691 228.35 101.429 231.8L169.839 271.3C175.809 274.74 175.059 280.76 168.169 284.74L103.669 321.98C96.7791 325.96 86.3591 326.39 80.3991 322.94Z" fill="#140648" stroke="url(#paint2_linear_2681_5731)" stroke-width="1.5" stroke-miterlimit="10"/>
<path d="M80.4008 234.76L12.0008 195.26C6.03084 191.82 6.78084 185.8 13.6708 181.82L78.1708 144.58C85.0608 140.6 95.4808 140.17 101.441 143.62L169.851 183.12C175.821 186.56 175.071 192.58 168.181 196.56L103.681 233.8C96.7908 237.78 86.3708 238.21 80.4108 234.76H80.4008Z" fill="#140648" stroke="url(#paint3_linear_2681_5731)" stroke-width="1.5" stroke-miterlimit="10"/>
<path d="M7.9707 64.5998V52.9098L101.441 18.5298L173.871 53.1798V64.3198" fill="url(#paint4_linear_2681_5731)"/>
<path d="M7.9707 64.5998V52.9098L101.441 18.5298L173.871 53.1798V64.3198" stroke="url(#paint5_linear_2681_5731)" stroke-width="2" stroke-miterlimit="10"/>
<path d="M13.6708 56.7397C6.78084 60.7197 6.03084 66.7297 12.0008 70.1797L80.4108 109.68C86.3808 113.12 96.8008 112.69 103.681 108.72L168.181 71.4797C175.071 67.4997 175.821 61.4897 169.851 58.0397" fill="url(#paint6_linear_2681_5731)"/>
<path d="M13.6708 56.7397C6.78084 60.7197 6.03084 66.7297 12.0008 70.1797L80.4108 109.68C86.3808 113.12 96.8008 112.69 103.681 108.72L168.181 71.4797C175.071 67.4997 175.821 61.4897 169.851 58.0397" stroke="url(#paint7_linear_2681_5731)" stroke-width="1.5" stroke-miterlimit="10"/>
<path d="M80.4008 98.4799L12.0008 58.9799C6.03084 55.5399 6.78084 49.5199 13.6708 45.5399L78.1708 8.29987C85.0608 4.31987 95.4808 3.88987 101.441 7.33987L169.851 46.8399C175.821 50.2799 175.071 56.2999 168.181 60.2799L103.681 97.5199C96.7908 101.5 86.3708 101.93 80.4108 98.4799H80.4008Z" fill="#140648" stroke="url(#paint8_linear_2681_5731)" stroke-width="1.5" stroke-miterlimit="10"/>
<path d="M92.5377 284.802C101.282 283.737 107.881 278.859 107.278 273.909C106.674 268.958 99.0966 265.809 90.3523 266.875C81.6081 267.941 75.0087 272.818 75.6122 277.769C76.2156 282.719 83.7934 285.868 92.5377 284.802Z" stroke="white" stroke-width="1.5" stroke-linecap="round" stroke-linejoin="round"/>
<path d="M53.9197 271.53C55.0597 269.55 56.6297 267.63 58.5897 265.81L69.2497 264.69C70.1597 264.11 71.1297 263.55 72.1397 263.02L74.0797 256.87C77.2197 255.74 80.5497 254.83 83.9797 254.17L91.8197 257.66C93.0997 257.56 94.3697 257.51 95.6297 257.5L104.42 253.33C107.71 253.71 110.84 254.35 113.72 255.24L114.14 261.3C115.03 261.75 115.87 262.23 116.64 262.75L127.13 263C128.66 264.67 129.77 266.48 130.43 268.39L123.2 273.47C123.18 274.2 123.09 274.93 122.93 275.67L128.97 280.19C127.83 282.17 126.26 284.09 124.3 285.91L113.64 287.03C112.73 287.61 111.76 288.17 110.75 288.7L108.81 294.85C105.68 295.99 102.35 296.9 98.9197 297.56L91.0797 294.07C89.7997 294.17 88.5297 294.22 87.2697 294.23L78.4797 298.4C75.1797 298.02 72.0397 297.38 69.1497 296.5L68.7297 290.44C67.8397 289.99 66.9997 289.51 66.2297 288.99L55.7397 288.74C54.1997 287.08 53.0897 285.27 52.4297 283.36L59.6597 278.28C59.6797 277.55 59.7697 276.82 59.9297 276.08L53.9297 271.53H53.9197Z" stroke="white" stroke-width="1.5" stroke-linecap="round" stroke-linejoin="round"/>
<path d="M94.4665 209.691C97.9642 209.265 100.604 207.315 100.363 205.336C100.122 203.357 97.0906 202.098 93.5929 202.524C90.0952 202.951 87.4553 204.901 87.6966 206.88C87.9378 208.859 90.9688 210.118 94.4665 209.691Z" fill="white"/>
<path d="M109.049 182.08C112.546 181.654 115.186 179.704 114.945 177.725C114.704 175.745 111.673 174.487 108.175 174.913C104.677 175.339 102.037 177.289 102.279 179.269C102.52 181.248 105.551 182.506 109.049 182.08Z" fill="white"/>
<path d="M61.2185 190.496C64.7162 190.069 67.356 188.119 67.1148 186.14C66.8735 184.161 63.8425 182.902 60.3448 183.329C56.8472 183.755 54.2073 185.705 54.4485 187.684C54.6898 189.663 57.7208 190.922 61.2185 190.496Z" fill="white"/>
<path d="M59.6608 177.96C50.9108 179.03 44.3208 183.91 44.9408 188.86C45.5608 193.81 53.1408 196.95 61.8908 195.87C65.3208 195.45 68.5708 194.41 71.1708 192.91L94.0308 206.11" stroke="white" stroke-width="1.5" stroke-linecap="round" stroke-linejoin="round"/>
<path d="M122.931 181.23C126.701 176.4 123.341 171.26 115.431 169.76C107.521 168.26 98.0412 170.96 94.2712 175.79C92.8812 177.57 92.4113 179.47 92.9313 181.25L60.7812 186.91" stroke="white" stroke-width="1.5" stroke-linecap="round" stroke-linejoin="round"/>
<path d="M82.0312 213.04C87.7812 216.35 97.8012 215.93 104.421 212.1C111.041 208.27 111.751 202.48 106.001 199.17C104.081 198.06 101.581 197.33 98.7913 197.06L108.601 178.5" stroke="white" stroke-width="1.5" stroke-linecap="round" stroke-linejoin="round"/>
<path d="M92.0598 24.01L137.79 50.41C138.94 51.07 138.79 52.23 137.47 53L94.2698 77.94C92.9398 78.71 90.9398 78.79 89.7898 78.13L44.0598 51.73C42.9098 51.07 43.0598 49.91 44.3798 49.14L87.5798 24.2C88.9098 23.43 90.9098 23.35 92.0598 24.01Z" stroke="white" stroke-width="1.5" stroke-linecap="round" stroke-linejoin="round"/>
<path d="M75.5801 31.1201L125.46 59.9201" stroke="white" stroke-width="1.5" stroke-linecap="round" stroke-linejoin="round"/>
<path d="M81.3906 48.33L70.8906 48.21L71.0906 54.27" stroke="white" stroke-width="1.5" stroke-linecap="round" stroke-linejoin="round"/>
<path d="M95.6613 56.5698L95.8613 62.6298L85.3613 62.5098" stroke="white" stroke-width="1.5" stroke-linecap="round" stroke-linejoin="round"/>
<path d="M98.2705 50.9399L68.4805 59.8999" stroke="white" stroke-width="1.5" stroke-linecap="round" stroke-linejoin="round"/>
<path d="M293.34 413.06C293.06 413.06 292.84 412.84 292.84 412.56V409.56C292.84 409.28 293.06 409.06 293.34 409.06C293.62 409.06 293.84 409.28 293.84 409.56V412.56C293.84 412.84 293.62 413.06 293.34 413.06ZM293.34 407.06C293.06 407.06 292.84 406.84 292.84 406.56V403.56C292.84 403.28 293.06 403.06 293.34 403.06C293.62 403.06 293.84 403.28 293.84 403.56V406.56C293.84 406.84 293.62 407.06 293.34 407.06ZM293.34 401.06C293.06 401.06 292.84 400.84 292.84 400.56V397.56C292.84 397.28 293.06 397.06 293.34 397.06C293.62 397.06 293.84 397.28 293.84 397.56V400.56C293.84 400.84 293.62 401.06 293.34 401.06ZM293.34 395.06C293.06 395.06 292.84 394.84 292.84 394.56V391.56C292.84 391.28 293.06 391.06 293.34 391.06C293.62 391.06 293.84 391.28 293.84 391.56V394.56C293.84 394.84 293.62 395.06 293.34 395.06ZM293.34 389.06C293.06 389.06 292.84 388.84 292.84 388.56V385.56C292.84 385.28 293.06 385.06 293.34 385.06C293.62 385.06 293.84 385.28 293.84 385.56V388.56C293.84 388.84 293.62 389.06 293.34 389.06ZM293.34 383.06C293.06 383.06 292.84 382.84 292.84 382.56V379.56C292.84 379.28 293.06 379.06 293.34 379.06C293.62 379.06 293.84 379.28 293.84 379.56V382.56C293.84 382.84 293.62 383.06 293.34 383.06ZM293.34 377.06C293.06 377.06 292.84 376.84 292.84 376.56V373.56C292.84 373.28 293.06 373.06 293.34 373.06C293.62 373.06 293.84 373.28 293.84 373.56V376.56C293.84 376.84 293.62 377.06 293.34 377.06ZM293.34 371.06C293.06 371.06 292.84 370.84 292.84 370.56V367.56C292.84 367.28 293.06 367.06 293.34 367.06C293.62 367.06 293.84 367.28 293.84 367.56V370.56C293.84 370.84 293.62 371.06 293.34 371.06ZM293.34 365.06C293.06 365.06 292.84 364.84 292.84 364.56V361.56C292.84 361.28 293.06 361.06 293.34 361.06C293.62 361.06 293.84 361.28 293.84 361.56V364.56C293.84 364.84 293.62 365.06 293.34 365.06ZM293.34 359.06C293.06 359.06 292.84 358.84 292.84 358.56V355.56C292.84 355.28 293.06 355.06 293.34 355.06C293.62 355.06 293.84 355.28 293.84 355.56V358.56C293.84 358.84 293.62 359.06 293.34 359.06ZM293.34 353.06C293.06 353.06 292.84 352.84 292.84 352.56V349.56C292.84 349.28 293.06 349.06 293.34 349.06C293.62 349.06 293.84 349.28 293.84 349.56V352.56C293.84 352.84 293.62 353.06 293.34 353.06ZM293.34 347.06C293.06 347.06 292.84 346.84 292.84 346.56V343.56C292.84 343.28 293.06 343.06 293.34 343.06C293.62 343.06 293.84 343.28 293.84 343.56V346.56C293.84 346.84 293.62 347.06 293.34 347.06ZM293.34 341.06C293.06 341.06 292.84 340.84 292.84 340.56V337.56C292.84 337.28 293.06 337.06 293.34 337.06C293.62 337.06 293.84 337.28 293.84 337.56V340.56C293.84 340.84 293.62 341.06 293.34 341.06ZM293.34 335.06C293.06 335.06 292.84 334.84 292.84 334.56V331.56C292.84 331.28 293.06 331.06 293.34 331.06C293.62 331.06 293.84 331.28 293.84 331.56V334.56C293.84 334.84 293.62 335.06 293.34 335.06ZM293.34 329.06C293.06 329.06 292.84 328.84 292.84 328.56V325.56C292.84 325.28 293.06 325.06 293.34 325.06C293.62 325.06 293.84 325.28 293.84 325.56V328.56C293.84 328.84 293.62 329.06 293.34 329.06ZM293.34 323.06C293.06 323.06 292.84 322.84 292.84 322.56V319.56C292.84 319.28 293.06 319.06 293.34 319.06C293.62 319.06 293.84 319.28 293.84 319.56V322.56C293.84 322.84 293.62 323.06 293.34 323.06ZM293.34 317.06C293.06 317.06 292.84 316.84 292.84 316.56V313.56C292.84 313.28 293.06 313.06 293.34 313.06C293.62 313.06 293.84 313.28 293.84 313.56V316.56C293.84 316.84 293.62 317.06 293.34 317.06ZM293.34 311.06C293.06 311.06 292.84 310.84 292.84 310.56V307.56C292.84 307.28 293.06 307.06 293.34 307.06C293.62 307.06 293.84 307.28 293.84 307.56V310.56C293.84 310.84 293.62 311.06 293.34 311.06ZM293.34 305.06C293.06 305.06 292.84 304.84 292.84 304.56V301.56C292.84 301.28 293.06 301.06 293.34 301.06C293.62 301.06 293.84 301.28 293.84 301.56V304.56C293.84 304.84 293.62 305.06 293.34 305.06ZM293.34 299.06C293.06 299.06 292.84 298.84 292.84 298.56V295.56C292.84 295.28 293.06 295.06 293.34 295.06C293.62 295.06 293.84 295.28 293.84 295.56V298.56C293.84 298.84 293.62 299.06 293.34 299.06ZM293.34 293.06C293.06 293.06 292.84 292.84 292.84 292.56V289.56C292.84 289.28 293.06 289.06 293.34 289.06C293.62 289.06 293.84 289.28 293.84 289.56V292.56C293.84 292.84 293.62 293.06 293.34 293.06ZM293.34 287.06C293.06 287.06 292.84 286.84 292.84 286.56V283.56C292.84 283.28 293.06 283.06 293.34 283.06C293.62 283.06 293.84 283.28 293.84 283.56V286.56C293.84 286.84 293.62 287.06 293.34 287.06ZM293.34 281.06C293.06 281.06 292.84 280.84 292.84 280.56V277.56C292.84 277.28 293.06 277.06 293.34 277.06C293.62 277.06 293.84 277.28 293.84 277.56V280.56C293.84 280.84 293.62 281.06 293.34 281.06ZM293.34 275.06C293.06 275.06 292.84 274.84 292.84 274.56V271.56C292.84 271.28 293.06 271.06 293.34 271.06C293.62 271.06 293.84 271.28 293.84 271.56V274.56C293.84 274.84 293.62 275.06 293.34 275.06ZM293.34 269.06C293.06 269.06 292.84 268.84 292.84 268.56V265.56C292.84 265.28 293.06 265.06 293.34 265.06C293.62 265.06 293.84 265.28 293.84 265.56V268.56C293.84 268.84 293.62 269.06 293.34 269.06ZM293.34 263.06C293.06 263.06 292.84 262.84 292.84 262.56V259.56C292.84 259.28 293.06 259.06 293.34 259.06C293.62 259.06 293.84 259.28 293.84 259.56V262.56C293.84 262.84 293.62 263.06 293.34 263.06ZM293.34 257.06C293.06 257.06 292.84 256.84 292.84 256.56V253.56C292.84 253.28 293.06 253.06 293.34 253.06C293.62 253.06 293.84 253.28 293.84 253.56V256.56C293.84 256.84 293.62 257.06 293.34 257.06ZM293.34 251.06C293.06 251.06 292.84 250.84 292.84 250.56V247.56C292.84 247.28 293.06 247.06 293.34 247.06C293.62 247.06 293.84 247.28 293.84 247.56V250.56C293.84 250.84 293.62 251.06 293.34 251.06ZM293.34 245.06C293.06 245.06 292.84 244.84 292.84 244.56V241.56C292.84 241.28 293.06 241.06 293.34 241.06C293.62 241.06 293.84 241.28 293.84 241.56V244.56C293.84 244.84 293.62 245.06 293.34 245.06ZM293.34 239.06C293.06 239.06 292.84 238.84 292.84 238.56V235.56C292.84 235.28 293.06 235.06 293.34 235.06C293.62 235.06 293.84 235.28 293.84 235.56V238.56C293.84 238.84 293.62 239.06 293.34 239.06ZM293.34 233.06C293.06 233.06 292.84 232.84 292.84 232.56V229.56C292.84 229.28 293.06 229.06 293.34 229.06C293.62 229.06 293.84 229.28 293.84 229.56V232.56C293.84 232.84 293.62 233.06 293.34 233.06ZM293.34 227.06C293.06 227.06 292.84 226.84 292.84 226.56V223.56C292.84 223.28 293.06 223.06 293.34 223.06C293.62 223.06 293.84 223.28 293.84 223.56V226.56C293.84 226.84 293.62 227.06 293.34 227.06ZM293.34 221.06C293.06 221.06 292.84 220.84 292.84 220.56V217.56C292.84 217.28 293.06 217.06 293.34 217.06C293.62 217.06 293.84 217.28 293.84 217.56V220.56C293.84 220.84 293.62 221.06 293.34 221.06ZM293.34 215.06C293.06 215.06 292.84 214.84 292.84 214.56V211.56C292.84 211.28 293.06 211.06 293.34 211.06C293.62 211.06 293.84 211.28 293.84 211.56V214.56C293.84 214.84 293.62 215.06 293.34 215.06ZM293.34 209.06C293.06 209.06 292.84 208.84 292.84 208.56V205.56C292.84 205.28 293.06 205.06 293.34 205.06C293.62 205.06 293.84 205.28 293.84 205.56V208.56C293.84 208.84 293.62 209.06 293.34 209.06ZM293.34 203.06C293.06 203.06 292.84 202.84 292.84 202.56V200.3C292.84 200.02 293.06 199.8 293.34 199.8C293.62 199.8 293.84 200.02 293.84 200.3V202.56C293.84 202.84 293.62 203.06 293.34 203.06Z" fill="#64D1DB"/>
<path opacity="0.29" d="M376.291 153.32H210.381V367.56H376.291V153.32Z" fill="url(#paint9_linear_2681_5731)"/>
<path d="M376.279 366.82C375.999 366.82 375.779 366.6 375.779 366.32V363.32C375.779 363.04 375.999 362.82 376.279 362.82C376.559 362.82 376.779 363.04 376.779 363.32V366.32C376.779 366.6 376.559 366.82 376.279 366.82ZM376.279 360.82C375.999 360.82 375.779 360.6 375.779 360.32V357.32C375.779 357.04 375.999 356.82 376.279 356.82C376.559 356.82 376.779 357.04 376.779 357.32V360.32C376.779 360.6 376.559 360.82 376.279 360.82ZM376.279 354.82C375.999 354.82 375.779 354.6 375.779 354.32V351.32C375.779 351.04 375.999 350.82 376.279 350.82C376.559 350.82 376.779 351.04 376.779 351.32V354.32C376.779 354.6 376.559 354.82 376.279 354.82ZM376.279 348.82C375.999 348.82 375.779 348.6 375.779 348.32V345.32C375.779 345.04 375.999 344.82 376.279 344.82C376.559 344.82 376.779 345.04 376.779 345.32V348.32C376.779 348.6 376.559 348.82 376.279 348.82ZM376.279 342.82C375.999 342.82 375.779 342.6 375.779 342.32V339.32C375.779 339.04 375.999 338.82 376.279 338.82C376.559 338.82 376.779 339.04 376.779 339.32V342.32C376.779 342.6 376.559 342.82 376.279 342.82ZM376.279 336.82C375.999 336.82 375.779 336.6 375.779 336.32V333.32C375.779 333.04 375.999 332.82 376.279 332.82C376.559 332.82 376.779 333.04 376.779 333.32V336.32C376.779 336.6 376.559 336.82 376.279 336.82ZM376.279 330.82C375.999 330.82 375.779 330.6 375.779 330.32V327.32C375.779 327.04 375.999 326.82 376.279 326.82C376.559 326.82 376.779 327.04 376.779 327.32V330.32C376.779 330.6 376.559 330.82 376.279 330.82ZM376.279 324.82C375.999 324.82 375.779 324.6 375.779 324.32V321.32C375.779 321.04 375.999 320.82 376.279 320.82C376.559 320.82 376.779 321.04 376.779 321.32V324.32C376.779 324.6 376.559 324.82 376.279 324.82ZM376.279 318.82C375.999 318.82 375.779 318.6 375.779 318.32V315.32C375.779 315.04 375.999 314.82 376.279 314.82C376.559 314.82 376.779 315.04 376.779 315.32V318.32C376.779 318.6 376.559 318.82 376.279 318.82ZM376.279 312.82C375.999 312.82 375.779 312.6 375.779 312.32V309.32C375.779 309.04 375.999 308.82 376.279 308.82C376.559 308.82 376.779 309.04 376.779 309.32V312.32C376.779 312.6 376.559 312.82 376.279 312.82ZM376.279 306.82C375.999 306.82 375.779 306.6 375.779 306.32V303.32C375.779 303.04 375.999 302.82 376.279 302.82C376.559 302.82 376.779 303.04 376.779 303.32V306.32C376.779 306.6 376.559 306.82 376.279 306.82ZM376.279 300.82C375.999 300.82 375.779 300.6 375.779 300.32V297.32C375.779 297.04 375.999 296.82 376.279 296.82C376.559 296.82 376.779 297.04 376.779 297.32V300.32C376.779 300.6 376.559 300.82 376.279 300.82ZM376.279 294.82C375.999 294.82 375.779 294.6 375.779 294.32V291.32C375.779 291.04 375.999 290.82 376.279 290.82C376.559 290.82 376.779 291.04 376.779 291.32V294.32C376.779 294.6 376.559 294.82 376.279 294.82ZM376.279 288.82C375.999 288.82 375.779 288.6 375.779 288.32V285.32C375.779 285.04 375.999 284.82 376.279 284.82C376.559 284.82 376.779 285.04 376.779 285.32V288.32C376.779 288.6 376.559 288.82 376.279 288.82ZM376.279 282.82C375.999 282.82 375.779 282.6 375.779 282.32V279.32C375.779 279.04 375.999 278.82 376.279 278.82C376.559 278.82 376.779 279.04 376.779 279.32V282.32C376.779 282.6 376.559 282.82 376.279 282.82ZM376.279 276.82C375.999 276.82 375.779 276.6 375.779 276.32V273.32C375.779 273.04 375.999 272.82 376.279 272.82C376.559 272.82 376.779 273.04 376.779 273.32V276.32C376.779 276.6 376.559 276.82 376.279 276.82ZM376.279 270.82C375.999 270.82 375.779 270.6 375.779 270.32V267.32C375.779 267.04 375.999 266.82 376.279 266.82C376.559 266.82 376.779 267.04 376.779 267.32V270.32C376.779 270.6 376.559 270.82 376.279 270.82ZM376.279 264.82C375.999 264.82 375.779 264.6 375.779 264.32V261.32C375.779 261.04 375.999 260.82 376.279 260.82C376.559 260.82 376.779 261.04 376.779 261.32V264.32C376.779 264.6 376.559 264.82 376.279 264.82ZM376.279 258.82C375.999 258.82 375.779 258.6 375.779 258.32V255.32C375.779 255.04 375.999 254.82 376.279 254.82C376.559 254.82 376.779 255.04 376.779 255.32V258.32C376.779 258.6 376.559 258.82 376.279 258.82ZM376.279 252.82C375.999 252.82 375.779 252.6 375.779 252.32V249.32C375.779 249.04 375.999 248.82 376.279 248.82C376.559 248.82 376.779 249.04 376.779 249.32V252.32C376.779 252.6 376.559 252.82 376.279 252.82ZM376.279 246.82C375.999 246.82 375.779 246.6 375.779 246.32V243.32C375.779 243.04 375.999 242.82 376.279 242.82C376.559 242.82 376.779 243.04 376.779 243.32V246.32C376.779 246.6 376.559 246.82 376.279 246.82ZM376.279 240.82C375.999 240.82 375.779 240.6 375.779 240.32V237.32C375.779 237.04 375.999 236.82 376.279 236.82C376.559 236.82 376.779 237.04 376.779 237.32V240.32C376.779 240.6 376.559 240.82 376.279 240.82ZM376.279 234.82C375.999 234.82 375.779 234.6 375.779 234.32V231.32C375.779 231.04 375.999 230.82 376.279 230.82C376.559 230.82 376.779 231.04 376.779 231.32V234.32C376.779 234.6 376.559 234.82 376.279 234.82ZM376.279 228.82C375.999 228.82 375.779 228.6 375.779 228.32V225.32C375.779 225.04 375.999 224.82 376.279 224.82C376.559 224.82 376.779 225.04 376.779 225.32V228.32C376.779 228.6 376.559 228.82 376.279 228.82ZM376.279 222.82C375.999 222.82 375.779 222.6 375.779 222.32V219.32C375.779 219.04 375.999 218.82 376.279 218.82C376.559 218.82 376.779 219.04 376.779 219.32V222.32C376.779 222.6 376.559 222.82 376.279 222.82ZM376.279 216.82C375.999 216.82 375.779 216.6 375.779 216.32V213.32C375.779 213.04 375.999 212.82 376.279 212.82C376.559 212.82 376.779 213.04 376.779 213.32V216.32C376.779 216.6 376.559 216.82 376.279 216.82ZM376.279 210.82C375.999 210.82 375.779 210.6 375.779 210.32V207.32C375.779 207.04 375.999 206.82 376.279 206.82C376.559 206.82 376.779 207.04 376.779 207.32V210.32C376.779 210.6 376.559 210.82 376.279 210.82ZM376.279 204.82C375.999 204.82 375.779 204.6 375.779 204.32V201.32C375.779 201.04 375.999 200.82 376.279 200.82C376.559 200.82 376.779 201.04 376.779 201.32V204.32C376.779 204.6 376.559 204.82 376.279 204.82ZM376.279 198.82C375.999 198.82 375.779 198.6 375.779 198.32V195.32C375.779 195.04 375.999 194.82 376.279 194.82C376.559 194.82 376.779 195.04 376.779 195.32V198.32C376.779 198.6 376.559 198.82 376.279 198.82ZM376.279 192.82C375.999 192.82 375.779 192.6 375.779 192.32V189.32C375.779 189.04 375.999 188.82 376.279 188.82C376.559 188.82 376.779 189.04 376.779 189.32V192.32C376.779 192.6 376.559 192.82 376.279 192.82ZM376.279 186.82C375.999 186.82 375.779 186.6 375.779 186.32V183.32C375.779 183.04 375.999 182.82 376.279 182.82C376.559 182.82 376.779 183.04 376.779 183.32V186.32C376.779 186.6 376.559 186.82 376.279 186.82ZM376.279 180.82C375.999 180.82 375.779 180.6 375.779 180.32V177.32C375.779 177.04 375.999 176.82 376.279 176.82C376.559 176.82 376.779 177.04 376.779 177.32V180.32C376.779 180.6 376.559 180.82 376.279 180.82ZM376.279 174.82C375.999 174.82 375.779 174.6 375.779 174.32V171.32C375.779 171.04 375.999 170.82 376.279 170.82C376.559 170.82 376.779 171.04 376.779 171.32V174.32C376.779 174.6 376.559 174.82 376.279 174.82ZM376.279 168.82C375.999 168.82 375.779 168.6 375.779 168.32V165.32C375.779 165.04 375.999 164.82 376.279 164.82C376.559 164.82 376.779 165.04 376.779 165.32V168.32C376.779 168.6 376.559 168.82 376.279 168.82ZM376.279 162.82C375.999 162.82 375.779 162.6 375.779 162.32V159.32C375.779 159.04 375.999 158.82 376.279 158.82C376.559 158.82 376.779 159.04 376.779 159.32V162.32C376.779 162.6 376.559 162.82 376.279 162.82ZM376.279 156.82C375.999 156.82 375.779 156.6 375.779 156.32V153.32C375.779 153.04 375.999 152.82 376.279 152.82C376.559 152.82 376.779 153.04 376.779 153.32V156.32C376.779 156.6 376.559 156.82 376.279 156.82Z" fill="#64D1DB"/>
<path d="M210.381 366.4C210.101 366.4 209.881 366.18 209.881 365.9V362.9C209.881 362.62 210.101 362.4 210.381 362.4C210.661 362.4 210.881 362.62 210.881 362.9V365.9C210.881 366.18 210.661 366.4 210.381 366.4ZM210.381 360.4C210.101 360.4 209.881 360.18 209.881 359.9V356.9C209.881 356.62 210.101 356.4 210.381 356.4C210.661 356.4 210.881 356.62 210.881 356.9V359.9C210.881 360.18 210.661 360.4 210.381 360.4ZM210.381 354.4C210.101 354.4 209.881 354.18 209.881 353.9V350.9C209.881 350.62 210.101 350.4 210.381 350.4C210.661 350.4 210.881 350.62 210.881 350.9V353.9C210.881 354.18 210.661 354.4 210.381 354.4ZM210.381 348.4C210.101 348.4 209.881 348.18 209.881 347.9V344.9C209.881 344.62 210.101 344.4 210.381 344.4C210.661 344.4 210.881 344.62 210.881 344.9V347.9C210.881 348.18 210.661 348.4 210.381 348.4ZM210.381 342.4C210.101 342.4 209.881 342.18 209.881 341.9V338.9C209.881 338.62 210.101 338.4 210.381 338.4C210.661 338.4 210.881 338.62 210.881 338.9V341.9C210.881 342.18 210.661 342.4 210.381 342.4ZM210.381 336.4C210.101 336.4 209.881 336.18 209.881 335.9V332.9C209.881 332.62 210.101 332.4 210.381 332.4C210.661 332.4 210.881 332.62 210.881 332.9V335.9C210.881 336.18 210.661 336.4 210.381 336.4ZM210.381 330.4C210.101 330.4 209.881 330.18 209.881 329.9V326.9C209.881 326.62 210.101 326.4 210.381 326.4C210.661 326.4 210.881 326.62 210.881 326.9V329.9C210.881 330.18 210.661 330.4 210.381 330.4ZM210.381 324.4C210.101 324.4 209.881 324.18 209.881 323.9V320.9C209.881 320.62 210.101 320.4 210.381 320.4C210.661 320.4 210.881 320.62 210.881 320.9V323.9C210.881 324.18 210.661 324.4 210.381 324.4ZM210.381 318.4C210.101 318.4 209.881 318.18 209.881 317.9V314.9C209.881 314.62 210.101 314.4 210.381 314.4C210.661 314.4 210.881 314.62 210.881 314.9V317.9C210.881 318.18 210.661 318.4 210.381 318.4ZM210.381 312.4C210.101 312.4 209.881 312.18 209.881 311.9V308.9C209.881 308.62 210.101 308.4 210.381 308.4C210.661 308.4 210.881 308.62 210.881 308.9V311.9C210.881 312.18 210.661 312.4 210.381 312.4ZM210.381 306.4C210.101 306.4 209.881 306.18 209.881 305.9V302.9C209.881 302.62 210.101 302.4 210.381 302.4C210.661 302.4 210.881 302.62 210.881 302.9V305.9C210.881 306.18 210.661 306.4 210.381 306.4ZM210.381 300.4C210.101 300.4 209.881 300.18 209.881 299.9V296.9C209.881 296.62 210.101 296.4 210.381 296.4C210.661 296.4 210.881 296.62 210.881 296.9V299.9C210.881 300.18 210.661 300.4 210.381 300.4ZM210.381 294.4C210.101 294.4 209.881 294.18 209.881 293.9V290.9C209.881 290.62 210.101 290.4 210.381 290.4C210.661 290.4 210.881 290.62 210.881 290.9V293.9C210.881 294.18 210.661 294.4 210.381 294.4ZM210.381 288.4C210.101 288.4 209.881 288.18 209.881 287.9V284.9C209.881 284.62 210.101 284.4 210.381 284.4C210.661 284.4 210.881 284.62 210.881 284.9V287.9C210.881 288.18 210.661 288.4 210.381 288.4ZM210.381 282.4C210.101 282.4 209.881 282.18 209.881 281.9V278.9C209.881 278.62 210.101 278.4 210.381 278.4C210.661 278.4 210.881 278.62 210.881 278.9V281.9C210.881 282.18 210.661 282.4 210.381 282.4ZM210.381 276.4C210.101 276.4 209.881 276.18 209.881 275.9V272.9C209.881 272.62 210.101 272.4 210.381 272.4C210.661 272.4 210.881 272.62 210.881 272.9V275.9C210.881 276.18 210.661 276.4 210.381 276.4ZM210.381 270.4C210.101 270.4 209.881 270.18 209.881 269.9V266.9C209.881 266.62 210.101 266.4 210.381 266.4C210.661 266.4 210.881 266.62 210.881 266.9V269.9C210.881 270.18 210.661 270.4 210.381 270.4ZM210.381 264.4C210.101 264.4 209.881 264.18 209.881 263.9V260.9C209.881 260.62 210.101 260.4 210.381 260.4C210.661 260.4 210.881 260.62 210.881 260.9V263.9C210.881 264.18 210.661 264.4 210.381 264.4ZM210.381 258.4C210.101 258.4 209.881 258.18 209.881 257.9V254.9C209.881 254.62 210.101 254.4 210.381 254.4C210.661 254.4 210.881 254.62 210.881 254.9V257.9C210.881 258.18 210.661 258.4 210.381 258.4ZM210.381 252.4C210.101 252.4 209.881 252.18 209.881 251.9V248.9C209.881 248.62 210.101 248.4 210.381 248.4C210.661 248.4 210.881 248.62 210.881 248.9V251.9C210.881 252.18 210.661 252.4 210.381 252.4ZM210.381 246.4C210.101 246.4 209.881 246.18 209.881 245.9V242.9C209.881 242.62 210.101 242.4 210.381 242.4C210.661 242.4 210.881 242.62 210.881 242.9V245.9C210.881 246.18 210.661 246.4 210.381 246.4ZM210.381 240.4C210.101 240.4 209.881 240.18 209.881 239.9V236.9C209.881 236.62 210.101 236.4 210.381 236.4C210.661 236.4 210.881 236.62 210.881 236.9V239.9C210.881 240.18 210.661 240.4 210.381 240.4ZM210.381 234.4C210.101 234.4 209.881 234.18 209.881 233.9V230.9C209.881 230.62 210.101 230.4 210.381 230.4C210.661 230.4 210.881 230.62 210.881 230.9V233.9C210.881 234.18 210.661 234.4 210.381 234.4ZM210.381 228.4C210.101 228.4 209.881 228.18 209.881 227.9V224.9C209.881 224.62 210.101 224.4 210.381 224.4C210.661 224.4 210.881 224.62 210.881 224.9V227.9C210.881 228.18 210.661 228.4 210.381 228.4ZM210.381 222.4C210.101 222.4 209.881 222.18 209.881 221.9V218.9C209.881 218.62 210.101 218.4 210.381 218.4C210.661 218.4 210.881 218.62 210.881 218.9V221.9C210.881 222.18 210.661 222.4 210.381 222.4ZM210.381 216.4C210.101 216.4 209.881 216.18 209.881 215.9V212.9C209.881 212.62 210.101 212.4 210.381 212.4C210.661 212.4 210.881 212.62 210.881 212.9V215.9C210.881 216.18 210.661 216.4 210.381 216.4ZM210.381 210.4C210.101 210.4 209.881 210.18 209.881 209.9V206.9C209.881 206.62 210.101 206.4 210.381 206.4C210.661 206.4 210.881 206.62 210.881 206.9V209.9C210.881 210.18 210.661 210.4 210.381 210.4ZM210.381 204.4C210.101 204.4 209.881 204.18 209.881 203.9V200.9C209.881 200.62 210.101 200.4 210.381 200.4C210.661 200.4 210.881 200.62 210.881 200.9V203.9C210.881 204.18 210.661 204.4 210.381 204.4ZM210.381 198.4C210.101 198.4 209.881 198.18 209.881 197.9V194.9C209.881 194.62 210.101 194.4 210.381 194.4C210.661 194.4 210.881 194.62 210.881 194.9V197.9C210.881 198.18 210.661 198.4 210.381 198.4ZM210.381 192.4C210.101 192.4 209.881 192.18 209.881 191.9V188.9C209.881 188.62 210.101 188.4 210.381 188.4C210.661 188.4 210.881 188.62 210.881 188.9V191.9C210.881 192.18 210.661 192.4 210.381 192.4ZM210.381 186.4C210.101 186.4 209.881 186.18 209.881 185.9V182.9C209.881 182.62 210.101 182.4 210.381 182.4C210.661 182.4 210.881 182.62 210.881 182.9V185.9C210.881 186.18 210.661 186.4 210.381 186.4ZM210.381 180.4C210.101 180.4 209.881 180.18 209.881 179.9V176.9C209.881 176.62 210.101 176.4 210.381 176.4C210.661 176.4 210.881 176.62 210.881 176.9V179.9C210.881 180.18 210.661 180.4 210.381 180.4ZM210.381 174.4C210.101 174.4 209.881 174.18 209.881 173.9V170.9C209.881 170.62 210.101 170.4 210.381 170.4C210.661 170.4 210.881 170.62 210.881 170.9V173.9C210.881 174.18 210.661 174.4 210.381 174.4ZM210.381 168.4C210.101 168.4 209.881 168.18 209.881 167.9V164.9C209.881 164.62 210.101 164.4 210.381 164.4C210.661 164.4 210.881 164.62 210.881 164.9V167.9C210.881 168.18 210.661 168.4 210.381 168.4ZM210.381 162.4C210.101 162.4 209.881 162.18 209.881 161.9V158.9C209.881 158.62 210.101 158.4 210.381 158.4C210.661 158.4 210.881 158.62 210.881 158.9V161.9C210.881 162.18 210.661 162.4 210.381 162.4ZM210.381 156.4C210.101 156.4 209.881 156.18 209.881 155.9V152.9C209.881 152.62 210.101 152.4 210.381 152.4C210.661 152.4 210.881 152.62 210.881 152.9V155.9C210.881 156.18 210.661 156.4 210.381 156.4Z" fill="#64D1DB"/>
<path d="M282.819 411.33L214.409 371.83C208.439 368.39 209.189 362.37 216.079 358.39L280.579 321.15C287.469 317.17 297.889 316.74 303.849 320.19L372.259 359.69C378.229 363.13 377.479 369.15 370.589 373.13L306.089 410.37C299.199 414.35 288.779 414.78 282.819 411.33Z" fill="#140648" stroke="url(#paint10_linear_2681_5731)" stroke-width="1.5" stroke-miterlimit="10"/>
<path d="M282.819 322.94L214.409 283.44C208.439 280 209.189 273.98 216.079 270L280.579 232.76C287.469 228.78 297.889 228.35 303.849 231.8L372.259 271.3C378.229 274.74 377.479 280.76 370.589 284.74L306.089 321.98C299.199 325.96 288.779 326.39 282.819 322.94Z" fill="#140648" stroke="url(#paint11_linear_2681_5731)" stroke-width="1.5" stroke-miterlimit="10"/>
<path d="M210.379 153.32V141.63L303.859 107.25L376.279 141.9V153.04" fill="url(#paint12_linear_2681_5731)"/>
<path d="M210.379 153.32V141.63L303.859 107.25L376.279 141.9V153.04" stroke="url(#paint13_linear_2681_5731)" stroke-width="2" stroke-miterlimit="10"/>
<path d="M216.079 145.46C209.189 149.44 208.439 155.45 214.409 158.9L282.819 198.4C288.789 201.84 299.209 201.41 306.089 197.44L370.589 160.2C377.479 156.22 378.229 150.21 372.259 146.76" fill="url(#paint14_linear_2681_5731)"/>
<path d="M216.079 145.46C209.189 149.44 208.439 155.45 214.409 158.9L282.819 198.4C288.789 201.84 299.209 201.41 306.089 197.44L370.589 160.2C377.479 156.22 378.229 150.21 372.259 146.76" stroke="url(#paint15_linear_2681_5731)" stroke-width="1.5" stroke-miterlimit="10"/>
<path d="M282.819 187.2L214.409 147.7C208.439 144.26 209.189 138.24 216.079 134.26L280.579 97.0201C287.469 93.0401 297.889 92.6101 303.849 96.0601L372.259 135.56C378.229 139 377.479 145.02 370.589 149L306.089 186.24C299.199 190.22 288.779 190.65 282.819 187.2Z" fill="#140648" stroke="url(#paint16_linear_2681_5731)" stroke-width="1.5" stroke-miterlimit="10"/>
<path d="M269.341 382.18L324.541 350.31C325.861 349.54 326.011 348.39 324.861 347.72C324.451 347.48 323.911 347.33 323.301 347.29L286.521 344.53C285.491 344.45 284.401 344.69 283.591 345.15L244.391 367.78" stroke="white" stroke-width="1.5" stroke-linecap="round" stroke-linejoin="round"/>
<path d="M307.741 360.01L326.451 370.81C327.601 371.47 327.451 372.63 326.131 373.4L290.131 394.18" stroke="white" stroke-width="1.5" stroke-linecap="round" stroke-linejoin="round"/>
<path d="M238.17 364.18L296.36 397.78" stroke="white" stroke-width="1.5" stroke-linecap="round" stroke-linejoin="round"/>
<path d="M292.23 359.37L287.43 362.14" stroke="white" stroke-width="1.5" stroke-linecap="round" stroke-linejoin="round"/>
<path d="M283.919 354.57L279.119 357.34" stroke="white" stroke-width="1.5" stroke-linecap="round" stroke-linejoin="round"/>
<path d="M267.12 364.27L262.32 367.04" stroke="white" stroke-width="1.5" stroke-linecap="round" stroke-linejoin="round"/>
<path d="M275.431 369.07L270.631 371.84" stroke="white" stroke-width="1.5" stroke-linecap="round" stroke-linejoin="round"/>
<path d="M297.021 291.11L295.271 289.52C295.131 289.38 294.851 289.32 294.551 289.34C293.511 289.42 292.571 289.47 291.551 289.46C291.261 289.46 290.951 289.55 290.781 289.7L287.381 292.45C287.181 292.61 286.831 292.71 286.521 292.68C285.531 292.6 284.661 292.5 283.711 292.36C283.411 292.31 283.221 292.16 283.211 291.97V288.83C283.211 288.66 283.071 288.52 282.801 288.45C281.911 288.23 281.131 287.99 280.301 287.69C280.061 287.61 279.761 287.6 279.481 287.69L274.391 289.28C274.091 289.37 273.741 289.37 273.511 289.25C272.801 288.88 272.201 288.53 271.561 288.12C271.361 287.99 271.341 287.79 271.501 287.61L274.251 284.67C274.391 284.51 274.391 284.33 274.251 284.2C273.751 283.73 273.321 283.27 272.941 282.76C272.831 282.62 272.581 282.52 272.281 282.52H266.841C266.531 282.52 266.261 282.41 266.171 282.23C265.921 281.68 265.741 281.17 265.611 280.61C265.561 280.43 265.721 280.23 266.011 280.11L270.771 278.15C271.031 278.05 271.191 277.87 271.181 277.7C271.181 277.1 271.241 276.56 271.401 275.97C271.441 275.8 271.331 275.64 271.091 275.55L268.231 274.5" stroke="white" stroke-width="1.5" stroke-linecap="round" stroke-linejoin="round"/>
<path d="M292.35 260.53L294.19 262.2C294.33 262.34 294.61 262.4 294.91 262.38C295.95 262.3 296.89 262.25 297.91 262.26C298.2 262.26 298.51 262.17 298.68 262.02L302.08 259.27C302.28 259.11 302.63 259.01 302.94 259.04C303.93 259.12 304.8 259.22 305.75 259.36C306.05 259.41 306.24 259.56 306.25 259.75V262.89C306.25 263.06 306.39 263.2 306.66 263.27C307.55 263.49 308.33 263.73 309.16 264.03C309.4 264.11 309.7 264.12 309.98 264.03L315.07 262.44C315.37 262.35 315.72 262.35 315.95 262.47C316.66 262.84 317.26 263.19 317.9 263.6C318.1 263.73 318.12 263.93 317.96 264.11L315.21 267.05C315.07 267.21 315.07 267.39 315.21 267.52C315.71 267.99 316.14 268.45 316.52 268.96C316.63 269.1 316.88 269.2 317.18 269.2H322.62C322.93 269.2 323.2 269.31 323.29 269.49C323.54 270.04 323.72 270.55 323.85 271.11C323.9 271.29 323.74 271.49 323.45 271.61L318.69 273.57C318.43 273.67 318.27 273.85 318.28 274.02C318.28 274.62 318.22 275.16 318.06 275.75C318.02 275.92 318.13 276.08 318.37 276.17L321.17 277.2" stroke="white" stroke-width="1.5" stroke-linecap="round" stroke-linejoin="round"/>
<path d="M290.24 246.8L306.04 252.5L254.27 282.39L244.4 273.27L290.24 246.8Z" stroke="white" stroke-width="1.5" stroke-linecap="round" stroke-linejoin="round"/>
<path d="M299.21 304.91L283.41 299.21L335.18 269.32L345.05 278.44L299.21 304.91Z" stroke="white" stroke-width="1.5" stroke-linecap="round" stroke-linejoin="round"/>
<path d="M295.384 281.029C300.445 280.412 304.264 277.592 303.915 274.73C303.566 271.868 299.181 270.049 294.121 270.665C289.061 271.282 285.242 274.102 285.591 276.964C285.939 279.826 290.324 281.645 295.384 281.029Z" stroke="white" stroke-width="1.5" stroke-linecap="round" stroke-linejoin="round"/>
<path d="M292.139 117.39L297.279 114.42C298.609 113.65 300.609 113.57 301.759 114.23L347.489 140.63C348.639 141.29 348.489 142.45 347.169 143.22L303.969 168.16C302.639 168.93 300.639 169.01 299.489 168.35L276.609 155.14" stroke="white" stroke-width="1.5" stroke-linecap="round" stroke-linejoin="round"/>
<path d="M310.211 135.74L335.161 150.15" stroke="white" stroke-width="1.5" stroke-linecap="round" stroke-linejoin="round"/>
<path d="M285.05 135.07L285.26 141.13L274.75 141.01" stroke="white" stroke-width="1.5" stroke-linecap="round" stroke-linejoin="round"/>
<path d="M284.1 140.46L258.73 125.82" stroke="white" stroke-width="1.5" stroke-linecap="round" stroke-linejoin="round"/>
<path d="M265.94 124.32L282.52 114.75C283.91 113.95 286.02 113.86 287.23 114.55L314.9 130.52C316.1 131.21 315.95 132.44 314.56 133.24L271.6 158.04C270.21 158.84 268.1 158.93 266.89 158.24L239.22 142.27C238.02 141.58 238.17 140.35 239.56 139.55L256.14 129.98" stroke="white" stroke-width="1.5" stroke-linecap="round" stroke-linejoin="round"/>
<path d="M131.93 357.12L141.65 362.73L130.42 369.22" stroke="white" stroke-width="1.64" stroke-linecap="round" stroke-linejoin="round"/>
<path d="M77.0195 388.82L86.7495 394.43L97.9795 387.95" stroke="white" stroke-width="1.64" stroke-linecap="round" stroke-linejoin="round"/>
<path d="M48.9192 372.59L39.1992 366.98L50.4292 360.5" stroke="white" stroke-width="1.64" stroke-linecap="round" stroke-linejoin="round"/>
<path d="M103.829 340.89L94.0991 335.28L82.8691 341.76" stroke="white" stroke-width="1.64" stroke-linecap="round" stroke-linejoin="round"/>
<path d="M96.3357 369.419C103.611 368.532 109.101 364.475 108.599 360.358C108.098 356.241 101.793 353.622 94.5182 354.509C87.2432 355.396 81.7526 359.452 82.2544 363.57C82.7563 367.687 89.0607 370.305 96.3357 369.419Z" stroke="white" stroke-width="1.64" stroke-linecap="round" stroke-linejoin="round"/>
<path d="M64.9785 364.57C78.6185 362.9 90.4585 367.8 91.4185 375.51C91.5785 376.83 91.4185 378.19 90.9185 379.54" stroke="white" stroke-width="1.64" stroke-linecap="round" stroke-linejoin="round"/>
<defs>
<linearGradient id="paint0_linear_2681_5731" x1="90.9207" y1="68.4201" x2="90.9207" y2="345.12" gradientUnits="userSpaceOnUse">
<stop stop-color="#64D1DB"/>
<stop offset="1" stop-color="#140648"/>
</linearGradient>
<linearGradient id="paint1_linear_2681_5731" x1="7.21912" y1="365.76" x2="174.629" y2="365.76" gradientUnits="userSpaceOnUse">
<stop stop-color="#D88080"/>
<stop offset="0.52" stop-color="#FFB962"/>
<stop offset="1" stop-color="#64DDE7"/>
</linearGradient>
<linearGradient id="paint2_linear_2681_5731" x1="-0.000882221" y1="277.38" x2="174.629" y2="277.38" gradientUnits="userSpaceOnUse">
<stop stop-color="#D88080"/>
<stop offset="0.52" stop-color="#FFB962"/>
<stop offset="1" stop-color="#64DDE7"/>
</linearGradient>
<linearGradient id="paint3_linear_2681_5731" x1="0.000836964" y1="189.19" x2="174.631" y2="189.19" gradientUnits="userSpaceOnUse">
<stop stop-color="#D88080"/>
<stop offset="0.52" stop-color="#FFB962"/>
<stop offset="1" stop-color="#64DDE7"/>
</linearGradient>
<linearGradient id="paint4_linear_2681_5731" x1="7.9707" y1="41.5698" x2="173.871" y2="41.5698" gradientUnits="userSpaceOnUse">
<stop stop-color="#D88080"/>
<stop offset="0.52" stop-color="#FFB962"/>
<stop offset="1" stop-color="#64DDE7"/>
</linearGradient>
<linearGradient id="paint5_linear_2681_5731" x1="6.9707" y1="41.0198" x2="174.871" y2="41.0198" gradientUnits="userSpaceOnUse">
<stop stop-color="#D88080"/>
<stop offset="0.52" stop-color="#FFB962"/>
<stop offset="1" stop-color="#64DDE7"/>
</linearGradient>
<linearGradient id="paint6_linear_2681_5731" x1="7.97084" y1="84.3697" x2="173.881" y2="84.3697" gradientUnits="userSpaceOnUse">
<stop stop-color="#D88080"/>
<stop offset="0.52" stop-color="#FFB962"/>
<stop offset="1" stop-color="#64DDE7"/>
</linearGradient>
<linearGradient id="paint7_linear_2681_5731" x1="7.22084" y1="84.4197" x2="174.631" y2="84.4197" gradientUnits="userSpaceOnUse">
<stop stop-color="#D88080"/>
<stop offset="0.52" stop-color="#FFB962"/>
<stop offset="1" stop-color="#64DDE7"/>
</linearGradient>
<linearGradient id="paint8_linear_2681_5731" x1="0.000836964" y1="52.9099" x2="174.631" y2="52.9099" gradientUnits="userSpaceOnUse">
<stop stop-color="#D88080"/>
<stop offset="0.52" stop-color="#FFB962"/>
<stop offset="1" stop-color="#64DDE7"/>
</linearGradient>
<linearGradient id="paint9_linear_2681_5731" x1="293.341" y1="156.04" x2="293.341" y2="353" gradientUnits="userSpaceOnUse">
<stop stop-color="#64D1DB"/>
<stop offset="1" stop-color="#140648"/>
</linearGradient>
<linearGradient id="paint10_linear_2681_5731" x1="209.629" y1="365.76" x2="377.039" y2="365.76" gradientUnits="userSpaceOnUse">
<stop stop-color="#D88080"/>
<stop offset="0.52" stop-color="#FFB962"/>
<stop offset="1" stop-color="#64DDE7"/>
</linearGradient>
<linearGradient id="paint11_linear_2681_5731" x1="209.629" y1="277.38" x2="377.039" y2="277.38" gradientUnits="userSpaceOnUse">
<stop stop-color="#D88080"/>
<stop offset="0.52" stop-color="#FFB962"/>
<stop offset="1" stop-color="#64DDE7"/>
</linearGradient>
<linearGradient id="paint12_linear_2681_5731" x1="210.379" y1="130.28" x2="376.279" y2="130.28" gradientUnits="userSpaceOnUse">
<stop stop-color="#D88080"/>
<stop offset="0.52" stop-color="#FFB962"/>
<stop offset="1" stop-color="#64DDE7"/>
</linearGradient>
<linearGradient id="paint13_linear_2681_5731" x1="209.379" y1="129.74" x2="377.279" y2="129.74" gradientUnits="userSpaceOnUse">
<stop stop-color="#D88080"/>
<stop offset="0.52" stop-color="#FFB962"/>
<stop offset="1" stop-color="#64DDE7"/>
</linearGradient>
<linearGradient id="paint14_linear_2681_5731" x1="210.379" y1="173.09" x2="376.289" y2="173.09" gradientUnits="userSpaceOnUse">
<stop stop-color="#D88080"/>
<stop offset="0.52" stop-color="#FFB962"/>
<stop offset="1" stop-color="#64DDE7"/>
</linearGradient>
<linearGradient id="paint15_linear_2681_5731" x1="209.629" y1="173.14" x2="377.039" y2="173.14" gradientUnits="userSpaceOnUse">
<stop stop-color="#D88080"/>
<stop offset="0.52" stop-color="#FFB962"/>
<stop offset="1" stop-color="#64DDE7"/>
</linearGradient>
<linearGradient id="paint16_linear_2681_5731" x1="209.629" y1="141.63" x2="377.039" y2="141.63" gradientUnits="userSpaceOnUse">
<stop stop-color="#D88080"/>
<stop offset="0.52" stop-color="#FFB962"/>
<stop offset="1" stop-color="#64DDE7"/>
</linearGradient>
</defs>
</svg>
